<svg width="16" height="16" viewBox="0 0 16 16" fill="none" xmlns="http://www.w3.org/2000/svg">
<path d="M2 3.53646C2 2.66667 2.66667 2 3.46615 2H12.4479C13.3776 2 14 2.66667 14 3.50781V12.513C14 13.3333 13.3333 14 12.487 14H3.50521C2.66667 14 2 13.3333 2 12.5391V3.53646Z" fill="url(#paint0_linear_4881_4140)"/>
<path d="M3 4.2C3 3.53726 3.53726 3 4.2 3H11.8C12.4627 3 13 3.53726 13 4.2V11.8C13 12.4627 12.4627 13 11.8 13H4.2C3.53726 13 3 12.4627 3 11.8V4.2Z" fill="url(#paint1_linear_4881_4140)"/>
<path d="M13 10.2158V11.8008C13 12.4567 12.4737 12.9891 11.8203 13H4.17969C3.58849 12.9902 3.10201 12.5535 3.01465 11.9844L6 9C6.00392 9.0136 6.63206 11.1874 7.65137 10.2158L10.5 7.5L13 10.2158Z" fill="#6582AA"/>
<path d="M7 6C7 6.55228 6.55228 7 6 7C5.44772 7 5 6.55228 5 6C5 5.44772 5.44772 5 6 5C6.55228 5 7 5.44772 7 6Z" fill="url(#paint2_linear_4881_4140)"/>
<defs>
<linearGradient id="paint0_linear_4881_4140" x1="2" y1="14" x2="14" y2="2" gradientUnits="userSpaceOnUse">
<stop stop-color="#9E9E9E"/>
<stop offset="1" stop-color="#BEBEBE"/>
</linearGradient>
<linearGradient id="paint1_linear_4881_4140" x1="8" y1="3" x2="8" y2="13" gradientUnits="userSpaceOnUse">
<stop stop-color="#142E50"/>
<stop offset="1" stop-color="#001534"/>
</linearGradient>
<linearGradient id="paint2_linear_4881_4140" x1="7" y1="5" x2="5" y2="7" gradientUnits="userSpaceOnUse">
<stop stop-color="#63D0DF"/>
<stop offset="1" stop-color="#C9E0FF"/>
</linearGradient>
</defs>
</svg>
