<svg width="256" height="256" viewBox="0 0 256 256" fill="none" xmlns="http://www.w3.org/2000/svg">
<path d="M24 40C24 31.1634 31.1634 24 40 24H216C224.837 24 232 31.1634 232 40V216C232 224.837 224.837 232 216 232H40C31.1634 232 24 224.837 24 216V40Z" fill="url(#paint0_linear_4880_4134)"/>
<path d="M36 44C36 39.5817 39.5817 36 44 36H212C216.418 36 220 39.5817 220 44V212C220 216.418 216.418 220 212 220H44C39.5817 220 36 216.418 36 212V44Z" fill="#CCCCCC"/>
<path d="M40 46C40 42.6863 42.6863 40 46 40H210C213.314 40 216 42.6863 216 46V210C216 213.314 213.314 216 210 216H46C42.6863 216 40 213.314 40 210V46Z" fill="url(#paint1_linear_4880_4134)"/>
<path d="M216 164V210C216 213.314 213.314 216 210 216H46C42.6863 216 40 213.314 40 210V196.5L72 164C72 164 72.1895 178.248 80 172L100 156C100 156 110.873 176.091 120 172C134.5 165.5 168 124 168 124L216 164Z" fill="#6582AA"/>
<path d="M216 164V210C216 213.314 213.314 216 210 216H46C42.6863 216 40 213.314 40 210V206.5L73.7393 171.768C73.8058 171.878 73.8755 171.985 73.9473 172.088C73.976 171.729 73.9983 171.516 74 171.5C74 171.5 72.1895 188.248 80 182C83.9052 178.876 78.5 188.5 84 188.5C86.6484 188.5 89.5506 184.007 92.2842 179C95.2275 173.608 90 182 95 182C99.054 182 107.217 169.533 110.577 169.521C110.987 169.855 111.402 170.17 111.821 170.462C115.446 175.864 114.792 182 125 182C140.508 182 183 136.5 183 136.5L216 164Z" fill="url(#paint2_linear_4880_4134)"/>
<path d="M124 101C124 114.255 113.255 125 100 125C86.7452 125 76 114.255 76 101C76 87.7452 86.7452 77 100 77C113.255 77 124 87.7452 124 101Z" fill="url(#paint3_linear_4880_4134)"/>
<path d="M113.449 81.1228C129.937 72.0556 142.74 67.7438 144.984 71.1238C148.04 75.7246 130.376 92.8286 105.532 109.327C80.6883 125.825 58.0714 135.47 55.0156 130.87C52.7713 127.49 61.7085 117.366 76.458 105.688C76.7352 107.088 77.1342 108.445 77.6435 109.746C67.9517 117.458 62.1613 123.554 63.3437 125.335C65.1777 128.095 83.0744 119.435 103.317 105.992C123.56 92.5491 138.484 79.4138 136.651 76.6531C135.469 74.8719 127.599 77.8465 116.726 83.7918C115.715 82.8098 114.619 81.9161 113.449 81.1228Z" fill="url(#paint4_linear_4880_4134)"/>
<path d="M185 74C184.336 75.467 184 77 184 77C184 77 183.664 75.467 183 74C182.195 72.221 181 72 181 72C181 72 182.195 71.779 183 70C183.664 68.533 184 67 184 67C184 67 184.336 68.533 185 70C185.805 71.779 187 72 187 72C187 72 185.805 72.221 185 74Z" fill="white"/>
<path d="M170 96C169.336 97.467 169 99 169 99C169 99 168.664 97.467 168 96C167.195 94.221 166 94 166 94C166 94 167.195 93.779 168 92C168.664 90.533 169 89 169 89C169 89 169.336 90.533 170 92C170.805 93.779 172 94 172 94C172 94 170.805 94.221 170 96Z" fill="white"/>
<path d="M193 107C192.336 108.467 192 111 192 111C192 111 191.664 108.467 191 107C190.195 105.221 188 104 188 104C188 104 190.195 102.779 191 101C191.664 99.533 192 97 192 97C192 97 192.336 99.533 193 101C193.805 102.779 196 104 196 104C196 104 193.805 105.221 193 107Z" fill="white"/>
<defs>
<linearGradient id="paint0_linear_4880_4134" x1="24" y1="232" x2="232" y2="24" gradientUnits="userSpaceOnUse">
<stop stop-color="#9E9E9E"/>
<stop offset="1" stop-color="#BEBEBE"/>
</linearGradient>
<linearGradient id="paint1_linear_4880_4134" x1="128" y1="40" x2="128" y2="216" gradientUnits="userSpaceOnUse">
<stop stop-color="#142E50"/>
<stop offset="1" stop-color="#001534"/>
</linearGradient>
<linearGradient id="paint2_linear_4880_4134" x1="167.5" y1="149" x2="135.5" y2="222" gradientUnits="userSpaceOnUse">
<stop stop-color="#48658B"/>
<stop offset="1" stop-color="#213B5E"/>
</linearGradient>
<linearGradient id="paint3_linear_4880_4134" x1="124" y1="77" x2="76" y2="125" gradientUnits="userSpaceOnUse">
<stop stop-color="#63D0DF"/>
<stop offset="1" stop-color="#C9E0FF"/>
</linearGradient>
<linearGradient id="paint4_linear_4880_4134" x1="55" y1="128" x2="147" y2="73.9999" gradientUnits="userSpaceOnUse">
<stop stop-color="#63D0DF"/>
<stop offset="1" stop-color="#05919F"/>
</linearGradient>
</defs>
</svg>
