<svg width="16" height="16" viewBox="0 0 16 16" fill="none" xmlns="http://www.w3.org/2000/svg">
<path d="M6 5L3 8L6 11V9H10V11L13 8L10 5V7H6V5Z" fill="#232323"/>
<path fill-rule="evenodd" clip-rule="evenodd" d="M14.0088 1C14.5611 1 15.0088 1.44772 15.0088 2V14C15.0088 14.5523 14.5611 15 14.0088 15H2.00879C1.4565 15 1.00879 14.5523 1.00879 14V2C1.00879 1.44772 1.4565 1 2.00879 1H14.0088ZM3.80859 3C3.36695 3.00014 3.00889 3.35816 3.00879 3.7998V12.2002C3.00889 12.6418 3.36695 12.9999 3.80859 13H12.209C12.6507 13 13.0087 12.6419 13.0088 12.2002V3.7998C13.0087 3.35807 12.6507 3.00001 12.209 3H3.80859Z" fill="#232323"/>
</svg>
