<svg width="128" height="128" viewBox="0 0 128 128" fill="none" xmlns="http://www.w3.org/2000/svg">
<path d="M12 20C12 15.5817 15.5817 12 20 12H108C112.418 12 116 15.5817 116 20V108C116 112.418 112.418 116 108 116H20C15.5817 116 12 112.418 12 108V20Z" fill="url(#paint0_linear_4881_4135)"/>
<path d="M18 22C18 19.7909 19.7909 18 22 18H106C108.209 18 110 19.7909 110 22V106C110 108.209 108.209 110 106 110H22C19.7909 110 18 108.209 18 106V22Z" fill="#CCCCCC"/>
<path d="M20 23C20 21.3431 21.3431 20 23 20H105C106.657 20 108 21.3431 108 23V105C108 106.657 106.657 108 105 108H23C21.3431 108 20 106.657 20 105V23Z" fill="url(#paint1_linear_4881_4135)"/>
<path d="M108 82V105C108 106.657 106.657 108 105 108H23C21.3431 108 20 106.657 20 105V98.25L36 82C36 82 36.0948 89.1242 40 86L50 78C50 78 55.4364 88.0457 60 86C67.25 82.75 84 62 84 62L108 82Z" fill="#6582AA"/>
<path d="M108 82.001V105C108 106.657 106.657 108 105 108H23C21.3431 108 20 106.657 20 105V103.221L36.8203 85.7969C36.8656 85.8776 36.9135 85.9548 36.9639 86.0283C36.9654 86.0071 36.9672 85.9866 36.9688 85.9668L36.9424 86.3682C36.8298 88.3646 36.8273 93.4484 40 90.8945C41.9526 89.3226 39.25 94.1641 42 94.1641C43.3242 94.1641 44.7758 91.9042 46.1426 89.3848C47.6141 86.6722 45 90.8945 47.5 90.8945C49.4672 90.8945 53.3694 84.9863 55.1338 84.6318C55.4414 84.8923 55.7546 85.1329 56.0732 85.3438L56.0742 85.3447C57.7074 87.9969 57.5555 90.8945 62.5 90.8945C69.8973 90.8945 89.5725 70.0575 91.3672 68.1406L108 82.001Z" fill="url(#paint2_linear_4881_4135)"/>
<path d="M62 51C62 57.6274 56.6274 63 50 63C43.3726 63 38 57.6274 38 51C38 44.3726 43.3726 39 50 39C56.6274 39 62 44.3726 62 51Z" fill="url(#paint3_linear_4881_4135)"/>
<path d="M55.2576 40.2127C63.6692 35.7311 70.3761 33.7876 71.7488 35.782C73.5894 38.4604 65.1224 47.2205 52.8357 55.3484C40.5482 63.4767 29.0935 67.8945 27.2517 65.2166C25.8565 63.1857 30.3863 57.6595 38.0134 51.5633C38.0497 52.343 38.161 53.103 38.3396 53.8367C33.4108 57.9168 30.5589 61.3078 31.3718 62.491C32.5997 64.2763 41.7114 60.3543 51.7234 53.7312C61.7353 47.1082 68.8565 40.2919 67.6287 38.5066C66.8324 37.35 62.7253 38.5908 57.2078 41.4099C56.5997 40.9521 55.9476 40.5498 55.2576 40.2127Z" fill="url(#paint4_linear_4881_4135)"/>
<path d="M93 37.5C92.6682 38.2335 92.5 39 92.5 39C92.5 39 92.3318 38.2335 92 37.5C91.5976 36.6105 91 36.5 91 36.5C91 36.5 91.5976 36.3895 92 35.5C92.3318 34.7665 92.5 34 92.5 34C92.5 34 92.6682 34.7665 93 35.5C93.4024 36.3895 94 36.5 94 36.5C94 36.5 93.4024 36.6105 93 37.5Z" fill="white"/>
<path d="M85 48.5C84.6682 49.2335 84.5 50 84.5 50C84.5 50 84.3318 49.2335 84 48.5C83.5976 47.6105 83 47.5 83 47.5C83 47.5 83.5976 47.3895 84 46.5C84.3318 45.7665 84.5 45 84.5 45C84.5 45 84.6682 45.7665 85 46.5C85.4024 47.3895 86 47.5 86 47.5C86 47.5 85.4024 47.6105 85 48.5Z" fill="white"/>
<path d="M96.5 54C96.1682 54.7335 96 56 96 56C96 56 95.8318 54.7335 95.5 54C95.0976 53.1105 94 52.5 94 52.5C94 52.5 95.0976 51.8895 95.5 51C95.8318 50.2665 96 49 96 49C96 49 96.1682 50.2665 96.5 51C96.9024 51.8895 98 52.5 98 52.5C98 52.5 96.9024 53.1105 96.5 54Z" fill="white"/>
<defs>
<linearGradient id="paint0_linear_4881_4135" x1="12" y1="116" x2="116" y2="12" gradientUnits="userSpaceOnUse">
<stop stop-color="#9E9E9E"/>
<stop offset="1" stop-color="#BEBEBE"/>
</linearGradient>
<linearGradient id="paint1_linear_4881_4135" x1="64" y1="20" x2="64" y2="108" gradientUnits="userSpaceOnUse">
<stop stop-color="#142E50"/>
<stop offset="1" stop-color="#001534"/>
</linearGradient>
<linearGradient id="paint2_linear_4881_4135" x1="83.75" y1="74.2893" x2="67.581" y2="110.944" gradientUnits="userSpaceOnUse">
<stop stop-color="#48658B"/>
<stop offset="1" stop-color="#213B5E"/>
</linearGradient>
<linearGradient id="paint3_linear_4881_4135" x1="62" y1="39" x2="38" y2="63" gradientUnits="userSpaceOnUse">
<stop stop-color="#63D0DF"/>
<stop offset="1" stop-color="#C9E0FF"/>
</linearGradient>
<linearGradient id="paint4_linear_4881_4135" x1="27.1632" y1="63.9917" x2="72.9836" y2="37.2735" gradientUnits="userSpaceOnUse">
<stop stop-color="#63D0DF"/>
<stop offset="1" stop-color="#05919F"/>
</linearGradient>
</defs>
</svg>
