<svg width="64" height="64" viewBox="0 0 64 64" fill="none" xmlns="http://www.w3.org/2000/svg">
<path d="M6 10C6 7.79086 7.79086 6 10 6H54C56.2091 6 58 7.79086 58 10V54C58 56.2091 56.2091 58 54 58H10C7.5 58 6 56 6 54V10Z" fill="url(#paint0_linear_4881_4136)"/>
<path d="M9 12C9 10.3431 10.3431 9 12 9H52C53.6569 9 55 10.3431 55 12V52C55 53.6569 53.6569 55 52 55H12C10.3431 55 9 53.6569 9 52V12Z" fill="#CCCCCC"/>
<path d="M10 12.5C10 11.1193 11.1193 10 12.5 10H51.5C52.8807 10 54 11.1193 54 12.5V51.5C54 52.8807 52.8807 54 51.5 54H12.5C11.1193 54 10 52.8807 10 51.5V12.5Z" fill="url(#paint1_linear_4881_4136)"/>
<path d="M54 41V51.5C54 52.0637 53.8108 52.5818 53.4961 53H10.5039C10.1892 52.5818 10 52.0637 10 51.5V49.125L18 41C18 41 18.0474 44.5621 20 43L25 39C25 39 27.7182 44.0229 30 43C33.625 41.375 42 31 42 31L54 41Z" fill="#6582AA"/>
<path d="M54 41.001V51.5C54 52.8807 52.8807 54 51.5 54H12.5C11.1547 54 10.0602 52.9372 10.0049 51.6055L18.4102 42.8975C18.433 42.9383 18.4569 42.9775 18.4824 43.0146C18.4832 43.0039 18.4836 42.9934 18.4844 42.9834C18.4244 43.769 18.2917 46.8225 20 45.4473C20.9761 44.6616 19.6251 47.083 21 47.083C21.6621 47.083 22.3879 45.9521 23.0713 44.6924C23.8066 43.3369 22.5001 45.4473 23.75 45.4473C24.7338 45.4473 26.6854 42.4927 27.5674 42.3164C27.7194 42.4451 27.8738 42.5645 28.0312 42.6689L28.1133 42.8018C28.8512 44.0911 28.8576 45.4473 31.25 45.4473C34.949 45.4473 44.7878 35.0271 45.6836 34.0703L54 41.001Z" fill="url(#paint2_linear_4881_4136)"/>
<path d="M31 24C31 27.3137 28.3137 30 25 30C21.6863 30 19 27.3137 19 24C19 20.6863 21.6863 18 25 18C28.3137 18 31 20.6863 31 24Z" fill="url(#paint3_linear_4881_4136)"/>
<path d="M27.803 18.6959C31.9207 16.3785 35.2048 15.3733 35.8762 16.4039C36.7756 17.7865 32.6365 22.3068 26.6301 26.5016C20.6233 30.6966 15.0242 32.977 14.1233 31.5953C13.4607 30.5783 15.5266 27.8617 19.0578 24.8258C19.1101 25.2042 19.1982 25.571 19.3176 25.9234C17.0472 27.9402 15.751 29.5998 16.136 30.191C16.7367 31.112 21.1918 29.0876 26.0862 25.6695C30.9804 22.2515 34.4611 18.7339 33.8616 17.8121C33.4716 17.2139 31.4576 17.859 28.7522 19.3199C28.4573 19.0832 28.1397 18.8743 27.803 18.6959Z" fill="url(#paint4_linear_4881_4136)"/>
<path d="M46.6667 19.4C46.5561 19.6934 46.5 20 46.5 20C46.5 20 46.4439 19.6934 46.3333 19.4C46.1992 19.0442 46 19 46 19C46 19 46.1992 18.9558 46.3333 18.6C46.4439 18.3066 46.5 18 46.5 18C46.5 18 46.5561 18.3066 46.6667 18.6C46.8008 18.9558 47 19 47 19C47 19 46.8008 19.0442 46.6667 19.4Z" fill="white"/>
<path d="M42.6667 24.4C42.5561 24.6934 42.5 25 42.5 25C42.5 25 42.4439 24.6934 42.3333 24.4C42.1992 24.0442 42 24 42 24C42 24 42.1992 23.9558 42.3333 23.6C42.4439 23.3066 42.5 23 42.5 23C42.5 23 42.5561 23.3066 42.6667 23.6C42.8008 23.9558 43 24 43 24C43 24 42.8008 24.0442 42.6667 24.4Z" fill="white"/>
<path d="M48.25 27.1429C48.0841 27.4572 48 28 48 28C48 28 47.9159 27.4572 47.75 27.1429C47.5488 26.7616 47 26.5 47 26.5C47 26.5 47.5488 26.2384 47.75 25.8571C47.9159 25.5428 48 25 48 25C48 25 48.0841 25.5428 48.25 25.8571C48.4512 26.2384 49 26.5 49 26.5C49 26.5 48.4512 26.7616 48.25 27.1429Z" fill="white"/>
<defs>
<linearGradient id="paint0_linear_4881_4136" x1="6" y1="58" x2="58" y2="6" gradientUnits="userSpaceOnUse">
<stop stop-color="#9E9E9E"/>
<stop offset="1" stop-color="#BEBEBE"/>
</linearGradient>
<linearGradient id="paint1_linear_4881_4136" x1="32" y1="10" x2="32" y2="54" gradientUnits="userSpaceOnUse">
<stop stop-color="#142E50"/>
<stop offset="1" stop-color="#001534"/>
</linearGradient>
<linearGradient id="paint2_linear_4881_4136" x1="41.875" y1="37.1447" x2="33.7902" y2="55.4725" gradientUnits="userSpaceOnUse">
<stop stop-color="#48658B"/>
<stop offset="1" stop-color="#213B5E"/>
</linearGradient>
<linearGradient id="paint3_linear_4881_4136" x1="31" y1="18" x2="19" y2="30" gradientUnits="userSpaceOnUse">
<stop stop-color="#63D0DF"/>
<stop offset="1" stop-color="#C9E0FF"/>
</linearGradient>
<linearGradient id="paint4_linear_4881_4136" x1="14.0798" y1="30.9629" x2="37.0796" y2="18.2595" gradientUnits="userSpaceOnUse">
<stop stop-color="#63D0DF"/>
<stop offset="1" stop-color="#05919F"/>
</linearGradient>
</defs>
</svg>
