<svg width="48" height="48" viewBox="0 0 48 48" fill="none" xmlns="http://www.w3.org/2000/svg">
<path d="M5 8.5C5 6.5 6.5 5 8.5 5H39.5C41.5 5 43 6.5 43 8.5V39.5C43 41.5 41.5 43 39.5 43H8.5C6.5 43 5 41.5 5 39.5V8.5Z" fill="url(#paint0_linear_4881_4137)"/>
<path d="M7 9.5C7 8.11929 8.11929 7 9.5 7H38.5C39.8807 7 41 8.11929 41 9.5V38.5C41 39.8807 39.8807 41 38.5 41H9.5C8.11929 41 7 39.8807 7 38.5V9.5Z" fill="#CCCCCC"/>
<path d="M8 10C8 8.89543 8.89543 8 10 8H38C39.1046 8 40 8.89543 40 10V38C40 39.1046 39.1046 40 38 40H10C8.89543 40 8 39.1046 8 38V10Z" fill="url(#paint1_linear_4881_4137)"/>
<path d="M40 30.2725V38C40 39.1046 39.1046 40 38 40H10C8.89543 40 8 39.1046 8 38V36.1816L13.8184 30.2725C13.8184 30.2725 13.8527 32.863 15.2725 31.7275L18.9092 28.8184C18.9249 28.8473 20.893 32.4685 22.5459 31.7275C25.1761 30.5482 31.2433 23.0361 31.2725 23L40 30.2725Z" fill="#6582AA"/>
<path d="M39.999 30.2725V30.1895L40 38C40 39.1046 39.1046 40 38 40H10C8.96233 40 8.1093 39.2097 8.00977 38.1982L14.123 31.667C14.1728 31.7534 14.2305 31.8292 14.2979 31.8877C14.303 31.8774 14.3085 31.8673 14.3135 31.8574C13.7921 32.889 12.5292 35.8124 15 35.8125C17.9312 35.8125 20.1193 31.4434 20.7881 31.2402C20.8891 31.3251 20.9924 31.4034 21.0967 31.4736L21.0586 31.4092C21.7174 32.4283 21.5987 33.5857 23.4541 33.5859C26.0482 33.5859 32.7949 26.3185 33.8574 25.1562L39.999 30.2725Z" fill="url(#paint2_linear_4881_4137)"/>
<path d="M40 39.624C40 39.7024 39.9762 39.7747 39.9365 39.835C39.9627 39.7949 39.9815 39.7493 39.9912 39.7002L39.9941 39.667C39.9957 39.6528 40 39.6387 40 39.624Z" fill="url(#paint3_linear_4881_4137)"/>
<path d="M23 19C23 21.2091 21.2091 23 19 23C16.7909 23 15 21.2091 15 19C15 16.7909 16.7909 15 19 15C21.2091 15 23 16.7909 23 19Z" fill="url(#paint4_linear_4881_4137)"/>
<path d="M21.1515 15.6321C24.0938 14.2219 26.429 13.6162 26.9112 14.2523C27.5641 15.1169 24.5536 17.9423 20.1857 20.5638C15.8177 23.1852 11.7462 24.61 11.09 23.7474C10.5877 23.0849 12.2413 21.2691 15.0099 19.2757C15.0268 19.5263 15.0671 19.7704 15.128 20.0062C13.3166 21.3544 12.2596 22.4809 12.5538 22.8694C12.9915 23.4445 16.2319 22.1794 19.7911 20.0433C23.3499 17.9074 25.8814 15.7087 25.4464 15.1321C25.1627 14.7579 23.695 15.1617 21.7247 16.0765C21.5479 15.9115 21.3559 15.7631 21.1515 15.6321Z" fill="url(#paint5_linear_4881_4137)"/>
<path d="M34.6667 14.4C34.5561 14.6934 34.5 15 34.5 15C34.5 15 34.4439 14.6934 34.3333 14.4C34.1992 14.0442 34 14 34 14C34 14 34.1992 13.9558 34.3333 13.6C34.4439 13.3066 34.5 13 34.5 13C34.5 13 34.5561 13.3066 34.6667 13.6C34.8008 13.9558 35 14 35 14C35 14 34.8008 14.0442 34.6667 14.4Z" fill="white"/>
<path d="M31.6667 18.4C31.5561 18.6934 31.5 19 31.5 19C31.5 19 31.4439 18.6934 31.3333 18.4C31.1992 18.0442 31 18 31 18C31 18 31.1992 17.9558 31.3333 17.6C31.4439 17.3066 31.5 17 31.5 17C31.5 17 31.5561 17.3066 31.6667 17.6C31.8008 17.9558 32 18 32 18C32 18 31.8008 18.0442 31.6667 18.4Z" fill="white"/>
<path d="M35.625 20.4286C35.542 20.6381 35.5 21 35.5 21C35.5 21 35.458 20.6381 35.375 20.4286C35.2744 20.1744 35 20 35 20C35 20 35.2744 19.8256 35.375 19.5714C35.458 19.3619 35.5 19 35.5 19C35.5 19 35.542 19.3619 35.625 19.5714C35.7256 19.8256 36 20 36 20C36 20 35.7256 20.1744 35.625 20.4286Z" fill="white"/>
<defs>
<linearGradient id="paint0_linear_4881_4137" x1="5" y1="43" x2="43" y2="5" gradientUnits="userSpaceOnUse">
<stop stop-color="#9E9E9E"/>
<stop offset="1" stop-color="#BEBEBE"/>
</linearGradient>
<linearGradient id="paint1_linear_4881_4137" x1="24" y1="8" x2="24" y2="40" gradientUnits="userSpaceOnUse">
<stop stop-color="#142E50"/>
<stop offset="1" stop-color="#001534"/>
</linearGradient>
<linearGradient id="paint2_linear_4881_4137" x1="31.1845" y1="27.446" x2="25.0656" y2="40.9871" gradientUnits="userSpaceOnUse">
<stop stop-color="#48658B"/>
<stop offset="1" stop-color="#213B5E"/>
</linearGradient>
<linearGradient id="paint3_linear_4881_4137" x1="31.1845" y1="27.446" x2="25.0656" y2="40.9871" gradientUnits="userSpaceOnUse">
<stop stop-color="#48658B"/>
<stop offset="1" stop-color="#213B5E"/>
</linearGradient>
<linearGradient id="paint4_linear_4881_4137" x1="23" y1="15" x2="15" y2="23" gradientUnits="userSpaceOnUse">
<stop stop-color="#63D0DF"/>
<stop offset="1" stop-color="#C9E0FF"/>
</linearGradient>
<linearGradient id="paint5_linear_4881_4137" x1="11.0584" y1="23.3517" x2="26.5072" y2="13.4222" gradientUnits="userSpaceOnUse">
<stop stop-color="#63D0DF"/>
<stop offset="1" stop-color="#05919F"/>
</linearGradient>
</defs>
</svg>
