<svg width="32" height="32" viewBox="0 0 32 32" fill="none" xmlns="http://www.w3.org/2000/svg">
<path d="M4 7C4 5.5 5 4 7 4H25C27 4 28 5.5 28 7V25C28 26.5 27 28 25 28H7C5.5 28 4 27 4 25V7Z" fill="url(#paint0_linear_4881_4138)"/>
<rect x="5" y="5" width="22" height="22" rx="2.5" fill="#CCCCCC"/>
<rect x="6" y="6" width="20" height="20" rx="2" fill="url(#paint1_linear_4881_4138)"/>
<path d="M26 20V24C26 25.1046 25.1046 26 24 26H8C6.91505 26 6.03396 25.136 6.00293 24.0586L9.63672 20C9.63676 20.0032 9.65915 21.7803 10.5459 21L12.8184 19C12.8259 19.0153 14.0568 21.5097 15.0908 21C16.7385 20.1875 20.5459 15 20.5459 15L26 20Z" fill="#6582AA"/>
<path d="M25.999 19.9971V19.6377H26V24C26 25.0859 25.1345 25.9676 24.0557 25.9971H7.94434C7.27686 25.9788 6.6905 25.636 6.34082 25.1182L9.94434 21.1133C9.98885 21.1538 10.0393 21.1806 10.0977 21.1904C10.104 21.1782 10.1109 21.1663 10.1172 21.1543C9.65607 22.0372 9.10453 23.498 10.5 23.498C11.9855 23.498 13.2236 21.1447 13.791 20.4561C14.0053 20.6922 14.2389 20.8926 14.4775 20.9941C14.4598 20.957 14.4423 20.9192 14.4248 20.8809C14.6248 21.321 14.8144 21.6924 15.6592 21.6924C16.9809 21.6922 20.0272 18.7706 21.4678 17.3096L22.2178 16.5312L25.999 19.9971ZM14.1611 20.375C14.1928 20.4225 14.2213 20.4714 14.248 20.5195C14.2212 20.4715 14.1928 20.4234 14.1611 20.376C14.1137 20.3428 14.0669 20.3066 14.0205 20.2686C14.005 20.2686 13.9876 20.2739 13.9688 20.2842C13.9876 20.2739 14.005 20.2676 14.0205 20.2676C14.0669 20.3057 14.1137 20.3418 14.1611 20.375Z" fill="url(#paint2_linear_4881_4138)"/>
<path d="M16 13C16 14.6569 14.6569 16 13 16C11.3431 16 10 14.6569 10 13C10 11.3431 11.3431 10 13 10C14.6569 10 16 11.3431 16 13Z" fill="url(#paint3_linear_4881_4138)"/>
<path d="M21.6667 10.4C21.5561 10.6934 21.5 11 21.5 11C21.5 11 21.4439 10.6934 21.3333 10.4C21.1992 10.0442 21 10 21 10C21 10 21.1992 9.95581 21.3333 9.6C21.4439 9.30659 21.5 9 21.5 9C21.5 9 21.5561 9.30659 21.6667 9.6C21.8008 9.95581 22 10 22 10C22 10 21.8008 10.0442 21.6667 10.4Z" fill="white"/>
<path d="M19.6667 12.4C19.5561 12.6934 19.5 13 19.5 13C19.5 13 19.4439 12.6934 19.3333 12.4C19.1992 12.0442 19 12 19 12C19 12 19.1992 11.9558 19.3333 11.6C19.4439 11.3066 19.5 11 19.5 11C19.5 11 19.5561 11.3066 19.6667 11.6C19.8008 11.9558 20 12 20 12C20 12 19.8008 12.0442 19.6667 12.4Z" fill="white"/>
<path d="M22.625 13.4286C22.542 13.6381 22.5 14 22.5 14C22.5 14 22.458 13.6381 22.375 13.4286C22.2744 13.1744 22 13 22 13C22 13 22.2744 12.8256 22.375 12.5714C22.458 12.3619 22.5 12 22.5 12C22.5 12 22.542 12.3619 22.625 12.5714C22.7256 12.8256 23 13 23 13C23 13 22.7256 13.1744 22.625 13.4286Z" fill="white"/>
<defs>
<linearGradient id="paint0_linear_4881_4138" x1="4" y1="28" x2="28" y2="4" gradientUnits="userSpaceOnUse">
<stop stop-color="#9E9E9E"/>
<stop offset="1" stop-color="#BEBEBE"/>
</linearGradient>
<linearGradient id="paint1_linear_4881_4138" x1="16" y1="6" x2="16" y2="26" gradientUnits="userSpaceOnUse">
<stop stop-color="#142E50"/>
<stop offset="1" stop-color="#001534"/>
</linearGradient>
<linearGradient id="paint2_linear_4881_4138" x1="20.4886" y1="17.9914" x2="16.5357" y2="26.5678" gradientUnits="userSpaceOnUse">
<stop stop-color="#48658B"/>
<stop offset="1" stop-color="#213B5E"/>
</linearGradient>
<linearGradient id="paint3_linear_4881_4138" x1="16" y1="10" x2="10" y2="16" gradientUnits="userSpaceOnUse">
<stop stop-color="#63D0DF"/>
<stop offset="1" stop-color="#C9E0FF"/>
</linearGradient>
</defs>
</svg>
