<svg width="24" height="24" viewBox="0 0 24 24" fill="none" xmlns="http://www.w3.org/2000/svg">
<path d="M3 5.30469C3 4 4 3 5.19922 3H18.6719C20.0664 3 21 4 21 5.26172V18.7695C21 20 20 21 18.7305 21H5.25781C4 21 3 20 3 18.8086V5.30469Z" fill="url(#paint0_linear_4881_4139)"/>
<path d="M4 5.6C4 4.71634 4.71634 4 5.6 4H18.4C19.2837 4 20 4.71634 20 5.6V18.4C20 19.2837 19.2837 20 18.4 20H5.6C4.71634 20 4 19.2837 4 18.4V5.6Z" fill="url(#paint1_linear_4881_4139)"/>
<path d="M20 15.5459V18.3984C19.9998 19.2818 19.2837 19.9978 18.4004 19.998H20V20H4V19.998H5.59961C4.95075 19.9979 4.3935 19.6109 4.14258 19.0557L6.90918 15.5459C6.90957 15.5764 6.9335 17.1573 7.63672 16.4541L9.4541 14.6367C9.46288 14.657 10.4464 16.9169 11.2725 16.4541C12.5906 15.7155 15.6367 11 15.6367 11L20 15.5459Z" fill="#6582AA"/>
<path d="M20 15.5449V18.4004C19.9998 19.2769 19.2948 19.9878 18.4209 19.999H5.5752C5.25218 19.9941 4.95261 19.8939 4.70312 19.7246L4.50195 19.999H4.5L7.09277 16.4746C7.12213 16.5249 7.15777 16.5639 7.19727 16.5918L7.20312 16.5801C6.85359 17.3799 6.53604 18.4989 7.5 18.499C8.41095 18.4989 9.1784 17.4194 9.70898 16.5713L10.1523 15.8564C10.3484 16.1207 10.5693 16.3528 10.7949 16.457L10.8926 16.4932C11.0347 16.7439 11.2495 16.9209 11.7275 16.9209C12.9535 16.9207 16.0314 13.1977 16.8145 12.2266L20 15.5449Z" fill="url(#paint2_linear_4881_4139)"/>
<path d="M10.3652 15.5928C10.3725 15.5875 10.3791 15.5824 10.3857 15.5791L10.3896 15.5771C10.3818 15.5807 10.3739 15.5866 10.3652 15.5928Z" fill="url(#paint3_linear_4881_4139)"/>
<path d="M11 10C11 11.1046 10.1046 12 9 12C7.89543 12 7 11.1046 7 10C7 8.89543 7.89543 8 9 8C10.1046 8 11 8.89543 11 10Z" fill="url(#paint4_linear_4881_4139)"/>
<path d="M16.6667 7.4C16.5561 7.69341 16.5 8 16.5 8C16.5 8 16.4439 7.69341 16.3333 7.4C16.1992 7.04419 16 7 16 7C16 7 16.1992 6.95581 16.3333 6.6C16.4439 6.30659 16.5 6 16.5 6C16.5 6 16.5561 6.30659 16.6667 6.6C16.8008 6.95581 17 7 17 7C17 7 16.8008 7.04419 16.6667 7.4Z" fill="white"/>
<path d="M14.6667 9.4C14.5561 9.69341 14.5 10 14.5 10C14.5 10 14.4439 9.69341 14.3333 9.4C14.1992 9.04419 14 9 14 9C14 9 14.1992 8.95581 14.3333 8.6C14.4439 8.30659 14.5 8 14.5 8C14.5 8 14.5561 8.30659 14.6667 8.6C14.8008 8.95581 15 9 15 9C15 9 14.8008 9.04419 14.6667 9.4Z" fill="white"/>
<path d="M17.625 10.4286C17.542 10.6381 17.5 11 17.5 11C17.5 11 17.458 10.6381 17.375 10.4286C17.2744 10.1744 17 10 17 10C17 10 17.2744 9.82558 17.375 9.57143C17.458 9.36185 17.5 9 17.5 9C17.5 9 17.542 9.36185 17.625 9.57143C17.7256 9.82558 18 10 18 10C18 10 17.7256 10.1744 17.625 10.4286Z" fill="white"/>
<defs>
<linearGradient id="paint0_linear_4881_4139" x1="3" y1="21" x2="21" y2="3" gradientUnits="userSpaceOnUse">
<stop stop-color="#9E9E9E"/>
<stop offset="1" stop-color="#BEBEBE"/>
</linearGradient>
<linearGradient id="paint1_linear_4881_4139" x1="12" y1="4" x2="12" y2="20" gradientUnits="userSpaceOnUse">
<stop stop-color="#142E50"/>
<stop offset="1" stop-color="#001534"/>
</linearGradient>
<linearGradient id="paint2_linear_4881_4139" x1="15.7286" y1="13.4255" x2="12.3619" y2="20.3196" gradientUnits="userSpaceOnUse">
<stop stop-color="#48658B"/>
<stop offset="1" stop-color="#213B5E"/>
</linearGradient>
<linearGradient id="paint3_linear_4881_4139" x1="15.7286" y1="13.4255" x2="12.3619" y2="20.3196" gradientUnits="userSpaceOnUse">
<stop stop-color="#48658B"/>
<stop offset="1" stop-color="#213B5E"/>
</linearGradient>
<linearGradient id="paint4_linear_4881_4139" x1="11" y1="8" x2="7" y2="12" gradientUnits="userSpaceOnUse">
<stop stop-color="#63D0DF"/>
<stop offset="1" stop-color="#C9E0FF"/>
</linearGradient>
</defs>
</svg>
